<?xml version="1.0" standalone="no"?>
<!DOCTYPE svg PUBLIC "-//W3C//DTD SVG 20010904//EN"
 "http://www.w3.org/TR/2001/REC-SVG-20010904/DTD/svg10.dtd">
<svg version="1.0" xmlns="http://www.w3.org/2000/svg"
 width="1052.000000pt" height="1280.000000pt" viewBox="0 0 1052.000000 1280.000000"
 preserveAspectRatio="xMidYMid meet">
<g transform="translate(0.000000,1280.000000) scale(0.100000,-0.100000)"
fill="#000000" stroke="none">
<path d="M5435 12771 c-33 -15 -69 -38 -80 -50 -18 -21 -25 -22 -100 -15 -62
5 -87 12 -112 31 -70 53 -157 62 -256 27 -23 -8 -72 -22 -109 -29 -37 -8 -107
-30 -155 -48 -64 -25 -111 -36 -174 -41 -213 -15 -430 -113 -597 -270 -37 -35
-100 -82 -141 -106 -95 -55 -209 -165 -324 -310 -50 -63 -121 -150 -159 -193
-37 -42 -71 -89 -74 -103 -4 -14 -4 -56 0 -93 l6 -67 -61 -59 c-33 -33 -79
-89 -102 -125 -23 -36 -61 -89 -85 -118 -87 -108 -150 -272 -171 -447 -6 -49
-18 -148 -26 -218 -13 -100 -14 -144 -6 -200 22 -153 51 -451 61 -629 15 -270
44 -384 119 -470 49 -56 40 -89 -28 -102 -52 -10 -100 -52 -130 -115 -25 -55
-26 -61 -25 -246 1 -212 15 -319 63 -462 75 -227 113 -299 222 -425 61 -70
102 -129 130 -187 50 -104 110 -168 194 -211 36 -18 69 -38 74 -44 5 -6 16
-38 25 -71 21 -81 113 -354 166 -490 l42 -110 9 -235 c16 -478 21 -876 10
-860 -6 8 -13 42 -17 74 -6 54 -8 58 -21 40 -20 -25 -206 -397 -333 -664 -56
-118 -110 -223 -119 -232 -9 -9 -128 -79 -266 -156 -294 -163 -590 -332 -915
-522 -1210 -707 -1848 -1145 -1889 -1295 -43 -161 -70 -898 -78 -2133 l-5
-792 5258 2 5259 3 0 675 c0 1136 -32 2077 -76 2245 -29 110 -387 382 -1029
782 -447 278 -1095 658 -1665 977 -165 93 -319 179 -341 192 -38 21 -48 37
-115 176 -40 84 -143 293 -228 463 l-155 310 -13 -40 c-11 -34 -12 12 -7 310
3 193 9 431 14 530 l8 180 41 99 c38 93 129 360 166 489 16 55 19 59 77 88 93
47 152 108 208 218 32 63 74 124 121 176 120 134 123 140 221 400 52 140 69
240 75 455 5 165 3 205 -11 253 -25 86 -97 157 -159 157 -54 0 -64 60 -18 104
69 66 103 196 121 455 12 187 58 657 66 684 5 17 -12 182 -41 394 -20 140 -66
274 -126 364 -87 131 -177 252 -233 315 l-55 62 6 69 c7 83 -5 111 -82 193
-28 30 -96 111 -150 180 -158 200 -231 268 -354 330 -24 12 -76 52 -115 89
-175 165 -355 247 -600 272 -84 9 -130 20 -191 44 -44 18 -105 38 -135 44 -30
5 -86 21 -125 35 -87 32 -105 32 -180 -3z"/>
</g>
</svg>
